<svg width="41" height="40" viewBox="0 0 41 40" fill="none" xmlns="http://www.w3.org/2000/svg">
<mask id="mask0_833_95" style="mask-type:alpha" maskUnits="userSpaceOnUse" x="0" y="0" width="41" height="40">
<rect x="0.950195" width="40" height="40" fill="#D9D9D9"/>
</mask>
<g mask="url(#mask0_833_95)">
<path d="M11.3384 27.5314C10.9401 27.3186 10.6266 27.016 10.3979 26.6237C10.1691 26.2314 10.0548 25.7999 10.0548 25.3294V17.9482L6.68836 16.0876C6.46936 15.9599 6.30493 15.8012 6.19506 15.6114C6.0852 15.4216 6.03027 15.2204 6.03027 15.0078C6.03027 14.7952 6.0852 14.5936 6.19506 14.4032C6.30493 14.2127 6.46936 14.0484 6.68836 13.9102L19.729 6.78639C19.9212 6.67775 20.1213 6.60304 20.3293 6.56227C20.5372 6.52149 20.7401 6.5011 20.938 6.5011C21.1358 6.5011 21.3371 6.52514 21.5416 6.57322C21.7462 6.62131 21.9471 6.69146 22.1442 6.78368L36.6283 14.6383C36.8199 14.7555 36.9757 14.9117 37.0957 15.1071C37.2158 15.3024 37.2758 15.5131 37.2758 15.7393V25.7189C37.2758 26.0031 37.1776 26.2422 36.9814 26.4363C36.7851 26.6304 36.5525 26.7274 36.2835 26.7274C35.9977 26.7274 35.7591 26.6304 35.5677 26.4363C35.3763 26.2422 35.2806 26.0031 35.2806 25.7189V16.1591L31.8111 17.9527V25.3308C31.8111 25.8004 31.6967 26.2314 31.468 26.6237C31.2393 27.016 30.9222 27.3186 30.5168 27.5314L22.1494 32.0993C21.9627 32.2168 21.7632 32.2993 21.551 32.3471C21.3388 32.3948 21.1326 32.4186 20.9324 32.4186C20.7322 32.4186 20.5262 32.3948 20.3143 32.3471C20.1025 32.2993 19.8996 32.2168 19.7057 32.0993L11.3384 27.5314ZM20.7406 21.5358C20.8083 21.5785 20.8733 21.5998 20.9356 21.5998C20.9979 21.5998 21.0665 21.5785 21.1413 21.5358L33.0836 14.9989L21.1413 8.56089C21.0665 8.52347 20.9979 8.50477 20.9356 8.50477C20.8733 8.50477 20.8083 8.52347 20.7406 8.56089L8.83732 14.9989L20.7406 21.5358ZM20.7246 30.3877C20.7922 30.4305 20.8599 30.4518 20.9276 30.4518C20.9953 30.4518 21.0665 30.4305 21.1413 30.3877L29.5756 25.7868C29.661 25.7405 29.7225 25.6809 29.7599 25.6078C29.7972 25.5348 29.8159 25.4449 29.8159 25.3381V19.1025L22.1562 23.2649C21.9568 23.36 21.7545 23.4314 21.5492 23.4791C21.344 23.5268 21.1369 23.5506 20.9277 23.5506C20.7186 23.5506 20.516 23.5268 20.3199 23.4791C20.1239 23.4314 19.9335 23.36 19.7486 23.2649L12.0499 19.0576V25.3381C12.0499 25.4307 12.0686 25.517 12.106 25.5972C12.1434 25.6773 12.2048 25.7405 12.2903 25.7868L20.7246 30.3877Z" fill="#9A9A9A"/>
</g>
</svg>
