<svg width="40" height="40" viewBox="0 0 40 40" fill="none" xmlns="http://www.w3.org/2000/svg">
<mask id="mask0_833_94" style="mask-type:alpha" maskUnits="userSpaceOnUse" x="0" y="0" width="40" height="40">
<rect width="40" height="40" fill="#D9D9D9"/>
</mask>
<g mask="url(#mask0_833_94)">
<path d="M9.6729 31.9936H15.7798V23.1704C15.7798 22.8136 15.9014 22.5135 16.1446 22.2703C16.3879 22.0271 16.6879 21.9055 17.0447 21.9055H22.9768C23.3168 21.9055 23.609 22.0271 23.8534 22.2703C24.0977 22.5135 24.2199 22.8136 24.2199 23.1704V31.9936H30.3267V16.729C30.3267 16.6435 30.308 16.5661 30.2707 16.4966C30.2333 16.4272 30.1825 16.3657 30.1184 16.3123L20.3043 8.94126C20.2188 8.87359 20.1173 8.83976 19.9998 8.83976C19.8823 8.83976 19.7808 8.87359 19.6953 8.94126L9.88123 16.3123C9.81712 16.3657 9.76637 16.4272 9.72898 16.4966C9.6916 16.5661 9.6729 16.6435 9.6729 16.729V31.9936ZM7.67773 31.9936V16.7399C7.67773 16.3328 7.76179 15.9559 7.9299 15.6091C8.09801 15.2624 8.34979 14.9713 8.68523 14.7356L18.4993 7.33767C18.9413 7.00184 19.4406 6.83392 19.9972 6.83392C20.5538 6.83392 21.0548 7.00184 21.5004 7.33767L31.3144 14.7356C31.6498 14.9713 31.9016 15.2624 32.0697 15.6091C32.2378 15.9559 32.3219 16.3328 32.3219 16.7399V31.9936C32.3219 32.5364 32.1251 33.0046 31.7314 33.3983C31.3378 33.7919 30.8695 33.9888 30.3267 33.9888H23.4897C23.1328 33.9888 22.8328 33.8671 22.5896 33.6239C22.3463 33.3807 22.2247 33.0806 22.2247 32.7238V23.9006H17.7749V32.7238C17.7749 33.0806 17.653 33.3807 17.4091 33.6239C17.1652 33.8671 16.8737 33.9888 16.5343 33.9888H9.66319C9.12778 33.9888 8.66301 33.7919 8.2689 33.3983C7.87479 33.0046 7.67773 32.5364 7.67773 31.9936Z" fill="#9A9A9A"/>
</g>
</svg>
