<svg width="40" height="40" viewBox="0 0 40 40" fill="none" xmlns="http://www.w3.org/2000/svg">
<mask id="mask0_833_98" style="mask-type:alpha" maskUnits="userSpaceOnUse" x="0" y="0" width="40" height="40">
<rect width="40" height="40" fill="#D9D9D9"/>
</mask>
<g mask="url(#mask0_833_98)">
<path d="M20.3227 19.4898C18.736 19.4898 17.4172 18.9647 16.3666 17.9145C15.3159 16.8642 14.7906 15.5439 14.7906 13.9536C14.7906 12.3633 15.3157 11.0446 16.366 9.99751C17.4162 8.95042 18.7347 8.42688 20.3215 8.42688C21.9082 8.42688 23.2269 8.95023 24.2776 9.99692C25.3282 11.0436 25.8535 12.3621 25.8535 13.9524C25.8535 15.5427 25.3284 16.8632 24.2782 17.9138C23.2279 18.9645 21.9095 19.4898 20.3227 19.4898ZM8 29.8953V28.6953C8 27.8391 8.22753 27.0813 8.68258 26.422C9.13761 25.7626 9.73851 25.2556 10.4853 24.9008C12.191 24.1277 13.8532 23.5417 15.4719 23.143C17.0906 22.7443 18.7073 22.5449 20.322 22.5449C21.9367 22.5449 23.5512 22.7447 25.1655 23.1443C26.7798 23.5438 28.4384 24.1332 30.1412 24.9123C30.9042 25.2635 31.5121 25.7665 31.9649 26.4215C32.4177 27.0764 32.6442 27.8341 32.6442 28.6948V29.9019C32.6442 30.4556 32.446 30.9307 32.0495 31.3274C31.6531 31.7241 31.1756 31.9225 30.617 31.9225H10.0272C9.46857 31.9225 8.99104 31.7243 8.59462 31.3278C8.19821 30.9314 8 30.4539 8 29.8953ZM9.99517 29.9273H30.649V28.7027C30.649 28.292 30.5226 27.9054 30.2698 27.543C30.0169 27.1807 29.6921 26.891 29.2954 26.6741C27.722 25.9156 26.2116 25.3703 24.7641 25.0382C23.3166 24.7061 21.8368 24.54 20.3247 24.54C18.8029 24.54 17.3143 24.7061 15.8589 25.0382C14.4034 25.3703 12.9017 25.9156 11.3536 26.6741C10.9423 26.891 10.613 27.1819 10.3659 27.5466C10.1187 27.9114 9.99517 28.2971 9.99517 28.7037V29.9273ZM20.3221 17.4947C21.3214 17.4947 22.1606 17.1551 22.8397 16.476C23.5188 15.7969 23.8584 14.9576 23.8584 13.9583C23.8584 12.9591 23.5188 12.1199 22.8397 11.4407C22.1606 10.7616 21.3214 10.422 20.3221 10.422C19.3228 10.422 18.4836 10.7616 17.8045 11.4407C17.1253 12.1199 16.7857 12.9591 16.7857 13.9583C16.7857 14.9576 17.1253 15.7969 17.8045 16.476C18.4836 17.1551 19.3228 17.4947 20.3221 17.4947Z" fill="#9A9A9A"/>
</g>
</svg>
