<svg width="49" height="54" viewBox="0 0 49 54" fill="none" xmlns="http://www.w3.org/2000/svg">
<g filter="url(#filter0_dd_833_96)">
<path d="M25.0199 26.2199H39.5799C39.8669 26.2199 40.0999 26.4529 40.0999 26.7399V29.8599C40.0999 31.1131 39.9522 32.332 39.673 33.4999C38.0381 40.3405 31.8979 45.4303 24.5633 45.4599C15.9485 45.4942 8.8999 38.365 8.8999 29.7502V9.05992C8.8999 8.77288 9.13286 8.53992 9.4199 8.53992H16.1799C24.6153 8.53992 31.4866 15.2349 31.7705 23.6012C31.7804 23.8955 31.5449 24.1399 31.2505 24.1399H25.0043C24.7282 24.1399 24.5015 23.9236 24.4853 23.648C24.3673 21.6106 23.5176 19.7116 22.0627 18.2566C20.6212 16.8152 18.7435 15.9676 16.7275 15.8376C16.43 15.8184 16.1794 16.0586 16.1794 16.3571V29.7783C16.1794 31.995 17.0275 34.14 18.5875 35.7151C20.1314 37.2736 22.1817 38.1461 24.3683 38.1794C26.6127 38.2137 28.7878 37.3354 30.3764 35.7494C30.8226 35.3043 31.2121 34.8171 31.5412 34.2971C31.7601 33.9513 31.51 33.4999 31.1008 33.4999H25.0194C24.7323 33.4999 24.4994 33.267 24.4994 32.9799V26.7399C24.4994 26.4529 24.7323 26.2199 25.0194 26.2199H25.0199Z" fill="#1BA4FF"/>
</g>
<defs>
<filter id="filter0_dd_833_96" x="0.899902" y="0.539917" width="47.2002" height="52.9201" filterUnits="userSpaceOnUse" color-interpolation-filters="sRGB">
<feFlood flood-opacity="0" result="BackgroundImageFix"/>
<feColorMatrix in="SourceAlpha" type="matrix" values="0 0 0 0 0 0 0 0 0 0 0 0 0 0 0 0 0 0 127 0" result="hardAlpha"/>
<feOffset/>
<feGaussianBlur stdDeviation="4"/>
<feComposite in2="hardAlpha" operator="out"/>
<feColorMatrix type="matrix" values="0 0 0 0 0.105882 0 0 0 0 0.642353 0 0 0 0 1 0 0 0 0.3 0"/>
<feBlend mode="normal" in2="BackgroundImageFix" result="effect1_dropShadow_833_96"/>
<feColorMatrix in="SourceAlpha" type="matrix" values="0 0 0 0 0 0 0 0 0 0 0 0 0 0 0 0 0 0 127 0" result="hardAlpha"/>
<feOffset/>
<feGaussianBlur stdDeviation="2"/>
<feComposite in2="hardAlpha" operator="out"/>
<feColorMatrix type="matrix" values="0 0 0 0 0.105882 0 0 0 0 0.643137 0 0 0 0 1 0 0 0 0.3 0"/>
<feBlend mode="normal" in2="effect1_dropShadow_833_96" result="effect2_dropShadow_833_96"/>
<feBlend mode="normal" in="SourceGraphic" in2="effect2_dropShadow_833_96" result="shape"/>
</filter>
</defs>
</svg>
